<mxfile host="app.diagrams.net" modified="2022-05-30T06:22:22.796Z" agent="5.0 (Windows NT 10.0; Win64; x64) AppleWebKit/537.36 (KHTML, like Gecko) Chrome/102.0.5005.61 Safari/537.36" etag="EmvpPsoMpqPFd2q7Oc-N" version="18.1.3" type="github">
  <diagram id="rfxB-TDsArem4qr27YHm" name="Low Level Systems">
    <mxGraphModel dx="4382" dy="3054" grid="1" gridSize="10" guides="1" tooltips="1" connect="1" arrows="1" fold="1" page="1" pageScale="1" pageWidth="827" pageHeight="1169" background="#F4F1DE" math="0" shadow="0">
      <root>
        <mxCell id="0" />
        <mxCell id="1" parent="0" />
        <object placeholders="1" c4Name="Input System" c4Type="Software System" c4Description="Module for processing keystrokes/buttons from different input devices" label="&lt;font style=&quot;font-size: 16px&quot;&gt;&lt;b&gt;%c4Name%&lt;/b&gt;&lt;/font&gt;&lt;div&gt;[%c4Type%]&lt;/div&gt;&lt;br&gt;&lt;div&gt;&lt;font style=&quot;font-size: 11px&quot;&gt;&lt;font color=&quot;#cccccc&quot;&gt;%c4Description%&lt;/font&gt;&lt;/div&gt;" id="g42y95zA-5Ie7wFMOvWm-30">
          <mxCell style="rounded=1;whiteSpace=wrap;html=1;labelBackgroundColor=none;fillColor=#1061B0;fontColor=#ffffff;align=center;arcSize=50;strokeColor=#0D5091;metaEdit=1;resizable=0;points=[[0.25,0,0],[0.5,0,0],[0.75,0,0],[1,0.25,0],[1,0.5,0],[1,0.75,0],[0.75,1,0],[0.5,1,0],[0.25,1,0],[0,0.75,0],[0,0.5,0],[0,0.25,0]];sketch=0;" vertex="1" parent="1">
            <mxGeometry x="1470" y="735" width="240" height="120" as="geometry" />
          </mxCell>
        </object>
        <object placeholders="1" c4Name="Event System" c4Type="Software System" c4Description="Module for processing and executing events" label="&lt;font style=&quot;font-size: 16px&quot;&gt;&lt;b&gt;%c4Name%&lt;/b&gt;&lt;/font&gt;&lt;div&gt;[%c4Type%]&lt;/div&gt;&lt;br&gt;&lt;div&gt;&lt;font style=&quot;font-size: 11px&quot;&gt;&lt;font color=&quot;#cccccc&quot;&gt;%c4Description%&lt;/font&gt;&lt;/div&gt;" id="g42y95zA-5Ie7wFMOvWm-32">
          <mxCell style="rounded=1;whiteSpace=wrap;html=1;labelBackgroundColor=none;fillColor=#1061B0;fontColor=#ffffff;align=center;arcSize=50;strokeColor=#0D5091;metaEdit=1;resizable=0;points=[[0.25,0,0],[0.5,0,0],[0.75,0,0],[1,0.25,0],[1,0.5,0],[1,0.75,0],[0.75,1,0],[0.5,1,0],[0.25,1,0],[0,0.75,0],[0,0.5,0],[0,0.25,0]];" vertex="1" parent="1">
            <mxGeometry x="1210" y="735" width="240" height="120" as="geometry" />
          </mxCell>
        </object>
        <object placeholders="1" c4Name="ECS" c4Type="Software System" c4Description="Module of storages/interfaces for creating objects" label="&lt;font style=&quot;font-size: 16px&quot;&gt;&lt;b&gt;%c4Name%&lt;/b&gt;&lt;/font&gt;&lt;div&gt;[%c4Type%]&lt;/div&gt;&lt;br&gt;&lt;div&gt;&lt;font style=&quot;font-size: 11px&quot;&gt;&lt;font color=&quot;#cccccc&quot;&gt;%c4Description%&lt;/font&gt;&lt;/div&gt;" id="g42y95zA-5Ie7wFMOvWm-45">
          <mxCell style="rounded=1;whiteSpace=wrap;html=1;labelBackgroundColor=none;fillColor=#1061B0;fontColor=#ffffff;align=center;arcSize=50;strokeColor=#0D5091;metaEdit=1;resizable=0;points=[[0.25,0,0],[0.5,0,0],[0.75,0,0],[1,0.25,0],[1,0.5,0],[1,0.75,0],[0.75,1,0],[0.5,1,0],[0.25,1,0],[0,0.75,0],[0,0.5,0],[0,0.25,0]];" vertex="1" parent="1">
            <mxGeometry x="940" y="735" width="240" height="120" as="geometry" />
          </mxCell>
        </object>
        <mxCell id="g42y95zA-5Ie7wFMOvWm-46" value="&lt;h2&gt;&lt;font style=&quot;font-size: 30px; font-weight: normal;&quot; face=&quot;Verdana&quot;&gt;Build Layer&lt;/font&gt;&lt;/h2&gt;" style="text;html=1;strokeColor=none;fillColor=none;align=center;verticalAlign=middle;whiteSpace=wrap;rounded=0;" vertex="1" parent="1">
          <mxGeometry x="-55" y="-40" width="190" height="50" as="geometry" />
        </mxCell>
        <mxCell id="g42y95zA-5Ie7wFMOvWm-47" value="GamePlay Layer" style="text;html=1;strokeColor=none;fillColor=none;align=center;verticalAlign=middle;whiteSpace=wrap;rounded=0;fontFamily=Verdana;fontSize=30;" vertex="1" parent="1">
          <mxGeometry x="-55" y="130" width="260" height="80" as="geometry" />
        </mxCell>
        <mxCell id="g42y95zA-5Ie7wFMOvWm-48" value="Managment Layer" style="text;html=1;strokeColor=none;fillColor=none;align=center;verticalAlign=middle;whiteSpace=wrap;rounded=0;fontFamily=Verdana;fontSize=30;" vertex="1" parent="1">
          <mxGeometry x="-55" y="320" width="280" height="60" as="geometry" />
        </mxCell>
        <mxCell id="g42y95zA-5Ie7wFMOvWm-49" value="Module Layer" style="text;html=1;strokeColor=none;fillColor=none;align=center;verticalAlign=middle;whiteSpace=wrap;rounded=0;fontFamily=Verdana;fontSize=30;" vertex="1" parent="1">
          <mxGeometry x="-55" y="515" width="210" height="70" as="geometry" />
        </mxCell>
        <mxCell id="g42y95zA-5Ie7wFMOvWm-50" value="Utility Layer" style="text;html=1;strokeColor=none;fillColor=none;align=center;verticalAlign=middle;whiteSpace=wrap;rounded=0;fontFamily=Verdana;fontSize=30;" vertex="1" parent="1">
          <mxGeometry x="-55" y="720" width="185" height="70" as="geometry" />
        </mxCell>
        <mxCell id="g42y95zA-5Ie7wFMOvWm-51" value="Memory Layer" style="text;html=1;strokeColor=none;fillColor=none;align=center;verticalAlign=middle;whiteSpace=wrap;rounded=0;fontFamily=Verdana;fontSize=30;" vertex="1" parent="1">
          <mxGeometry x="-55" y="970" width="220" height="60" as="geometry" />
        </mxCell>
        <mxCell id="g42y95zA-5Ie7wFMOvWm-52" value="Base Layer" style="text;html=1;strokeColor=none;fillColor=none;align=center;verticalAlign=middle;whiteSpace=wrap;rounded=0;fontFamily=Verdana;fontSize=30;" vertex="1" parent="1">
          <mxGeometry x="-55" y="1220" width="175" height="60" as="geometry" />
        </mxCell>
      </root>
    </mxGraphModel>
  </diagram>
</mxfile>
